<?xml version="1.0" encoding="utf-8"?>
<!-- Generator: Adobe Illustrator 19.2.1, SVG Export Plug-In . SVG Version: 6.00 Build 0)  -->
<svg version="1.1" id="layer" xmlns="http://www.w3.org/2000/svg" xmlns:xlink="http://www.w3.org/1999/xlink" x="0px" y="0px"
	 viewBox="0 0 652 652" style="enable-background:new 0 0 652 652;" xml:space="preserve">
<style type="text/css">
	.st0{fill:#003E6F;}
</style>
<path class="st0" d="M626.4,337.6c0-17.2-11.8-27.5-27.5-27.5c-15.6,0-28.1,11.2-28.1,28.4c0,17.2,12.5,28.7,28.1,28.7
	c5.8,0,10.5-1,16.3-4.1c5.8-3.2,9.9-9.9,10.5-14.1h-11.5c-2.9,5.1-8,7.7-15,7.7c-9.6,0-16.6-7.7-16.6-14.7h43.4
	C626.4,340.1,626.4,338.8,626.4,337.6 M582.6,332.1c1.6-7,7.3-11.8,15.6-11.8s15,4.8,16,11.8H582.6z"/>
<path class="st0" d="M70.1,345.9c-2.5,5.8-8.3,9.6-15,9.6c-8.9,0-16.6-7.3-16.6-16.6c0-8.9,7.3-16.6,16.6-16.6
	c6.7,0,12.5,4.1,15,9.9h12.8c-2.9-12.8-14.4-22-27.8-22c-15.6,0-28.7,12.8-28.7,28.7c0,16,12.8,28.7,28.7,28.7
	c13.4,0,24.6-9.3,27.8-21.7H70.1z"/>
<path class="st0" d="M128.6,312.6c-3.5-1.6-7.3-2.5-11.5-2.5c-4.1,0-8,1.3-11.5,3.5V312H93.8v24.3v29.1h11.8v-25.5
	c0-4.8,0-8,0.6-10.2v-0.3c0.6-2.2,1.9-3.8,4.5-5.4c1.6-1,3.5-1.9,6.4-1.9c2.9,0,4.5,0.6,6.4,1.9L128.6,312.6z"/>
<path class="st0" d="M173.3,312v25.5c0,4.8,0,8-0.6,10.2v0.3c-0.6,2.2-1.9,3.8-4.5,5.4c-1.6,1-3.5,1.9-6.4,1.9
	c-2.9,0-4.5-0.6-6.4-1.9c-2.2-1.6-3.5-2.9-4.5-5.4v-0.3c-0.6-2.2-0.6-5.4-0.6-10.2V312h-11.8v29.1c0,6.4,0.3,9.3,1.9,14.1
	c1.6,4.2,5.1,7.7,9.6,9.6c3.5,1.6,7.3,2.6,11.5,2.6c4.2,0,8-1.3,11.5-3.5v1.6h11.8v-24.3V312H173.3z"/>
<path class="st0" d="M211.3,365.3v-25.5c0-4.8,0-8,0.6-10.2v-0.3c0.6-2.2,1.9-3.8,4.5-5.4c1.6-1,3.5-1.9,6.4-1.9
	c2.9,0,4.5,0.6,6.4,1.9c2.2,1.6,3.5,2.9,4.5,5.4v0.3c0.6,2.2,0.6,5.4,0.6,10.2v25.5h11.8v-29.1c0-6.4-0.3-9.3-1.9-14.1
	c-1.6-4.1-5.1-7.7-9.6-9.6c-3.5-1.6-7.3-2.6-11.5-2.6c-4.2,0-8,1.3-11.5,3.5V312h-11.8v24.3v29.1H211.3z"/>
<path class="st0" d="M300.4,345.9c-2.5,5.8-8.3,9.6-15,9.6c-8.9,0-16.6-7.3-16.6-16.6c0-8.9,7.3-16.6,16.6-16.6
	c6.7,0,12.5,4.1,15,9.9h12.8c-2.9-12.8-14.4-22-27.8-22c-15.6,0-28.7,12.8-28.7,28.7c0,16,12.8,28.7,28.7,28.7
	c13.4,0,24.6-9.3,27.8-21.7H300.4z"/>
<path class="st0" d="M335.8,365.3v-25.5c0-4.8,0-8,0.6-10.2v-0.3c0.6-2.2,1.9-3.8,4.5-5.4c1.6-1,3.5-1.9,6.4-1.9
	c2.9,0,4.5,0.6,6.4,1.9c2.2,1.6,3.5,2.9,4.5,5.4v0.3c0.6,2.2,0.6,5.4,0.6,10.2v25.5h11.8v-29.1c0-6.4-0.3-9.3-1.9-14.1
	c-1.6-4.1-5.1-7.7-9.6-9.6c-3.5-1.6-7.3-2.6-11.5-2.6s-8,1.3-11.5,3.5v-30.7h-11.8v53.3v29.1H335.8z"/>
<path class="st0" d="M412.8,310.1h-2.2c-5.1,0.3-9.9,2.2-14.1,5.1v-32.3h-11.8v53.3v8.9v20.1h11.8v-2.9c4.5,3.2,10.2,5.1,16,5.1
	c3.5,0,7-0.6,10.2-1.9c2.9-1.3,5.7-2.9,8.3-4.8c6.1-5.1,9.9-13.1,9.9-21.7C441.2,322.9,428.4,310.1,412.8,310.1 M429,341.1v0.6
	c0,0.6-0.3,1.3-0.3,1.9c-0.3,0.6-0.6,1.3-1,1.9v0.3c-1.6,3.5-4.5,6.4-8,8c-1,0.3-2.2,1-3.2,1c-0.6,0-1,0.3-1.6,0.3h-0.3h-1.9
	c-0.6,0-1.6,0-2.2-0.3h-0.6c-1.6-0.3-2.9-0.6-4.2-1.3h-0.3c-1.3-0.6-2.6-1.6-3.8-2.5c-1.3-1-2.2-2.2-2.9-3.5l-1-1.9
	c-1-1.9-1.3-4.2-1.3-6.7c0-2.5,0.6-4.8,1.6-7c2.6-5.1,7.3-8.6,13.1-9.3h1.6c8.9,0,16.6,7.3,16.6,16.6C429,339.5,429,340.1,429,341.1
	"/>
<path class="st0" d="M561.2,328L561.2,328c0-8.9-6.7-17.9-21.4-17.9c-14.7,0-21.4,8.6-21.4,17.2v0.3v0.3c0.3,5.1,3.2,11.5,14.4,14.1
	l9.9,2.2c2.6,0.6,7,1.9,7.3,5.4c0,4.5-5.8,7-9.9,7c-4.8,0-9.9-2.5-9.9-7v-0.3h-11.5v0.3c0,8.6,6.7,17.6,21.4,17.6
	c15,0,21.4-8.9,21.4-17.6v-0.3c-0.3-5.1-2.9-11.5-14.4-14.1l-9.9-2.2c-2.2-0.6-7.3-1.9-7.3-5.1c0-5.1,5.1-6.7,9.9-6.7
	c4.8,0,9.9,2.5,9.9,7v0.3h11.5V328z"/>
<path class="st0" d="M450.8,338.8c0,8.6,3.8,16.6,9.9,21.7c2.6,2.2,5.1,3.8,8.3,4.8c3.2,1.3,6.7,1.9,10.2,1.9c6.1,0,11.5-1.9,16-5.1
	v2.9H507v-20.1V336v-24.3h-11.8v3.2c-4.1-2.9-8.9-4.5-14-5.1h-2.2C463.8,310.1,450.8,322.9,450.8,338.8 M462.9,338.8L462.9,338.8
	c0-8.9,7.3-16.6,16.6-16.6h1.6c5.7,0.6,10.8,4.1,13.1,9.3c1,2.2,1.6,4.5,1.6,7c0,2.2-0.6,4.5-1.3,6.7l-1,1.9c-1,1.3-1.9,2.5-2.9,3.5
	c-1,1-2.2,1.9-3.8,2.6h-0.3c-1.3,0.6-2.5,1-4.1,1.3h-0.6c-0.6,0-1.6,0.3-2.2,0.3h-1.9h-0.3c-0.6,0-1,0-1.6-0.3
	c-1.3-0.3-2.2-0.6-3.2-1c-3.5-1.6-6.4-4.5-8-8v-0.3c-0.3-0.6-0.6-1.3-1-1.9c-0.3-0.6-0.3-1.3-0.3-1.9v-0.6
	C463.2,340.1,462.9,339.5,462.9,338.8"/>
</svg>
